# xmcd
#
# Track frame offsets: 
#        180
#        19632
#        41004
#        61737
#        82440
#        96776
#        123169
#        141189
#        150245
#        167037
#        180712
#        203425
#        220697
#        240574
#        257362
#        276985
#        292219
#        306485
#
# Disc length: 4313 seconds
#
# Revision: 2
# Processed by: cddbd v1.5.2PL0 Copyright (c) Steve Scherf et al.
# Submitted via: ExactAudioCopy v0.95a5
#
DISCID=fc10d712
DTITLE=Paul McCartney - Gold Singles Collection
DYEAR=1995
DGENRE=Rock
TTITLE0=Simple As That
TTITLE1=Mull of Kintyre
TTITLE2=Oh Wooman, Oh Why
TTITLE3=C Moon
TTITLE4=Country Dreamer
TTITLE5=Check My Machine
TTITLE6=Loveliest Thing
TTITLE7=Zoo Gang
TTITLE8=Another Day
TTITLE9=Twice in a Lifetime
TTITLE10=I Lie Around
TTITLE11=Lunch Box/Odd Sox
TTITLE12=We All Stand Together
TTITLE13=Mama's Little Girl
TTITLE14=Goodnight Tonight
TTITLE15=Daytime Nightime Suffering
TTITLE16=Bridge on a River Suite
TTITLE17=Wonderful Christmastime
EXTD=
EXTT0=
EXTT1=
EXTT2=
EXTT3=
EXTT4=
EXTT5=
EXTT6=
EXTT7=
EXTT8=
EXTT9=
EXTT10=
EXTT11=
EXTT12=
EXTT13=
EXTT14=
EXTT15=
EXTT16=
EXTT17=
PLAYORDER=
